<svg width="48" height="51" viewBox="0 0 48 51" fill="none" xmlns="http://www.w3.org/2000/svg">
<path d="M0 16.8299V26.1685C3.03662 26.1663 6.04385 26.7933 8.84962 28.0138C11.6554 29.2342 14.2046 31.0241 16.3515 33.2809C18.4978 35.537 20.2 38.2155 21.3606 41.1634C22.5212 44.1112 23.1176 47.2705 23.1157 50.4607H31.9956C31.9876 41.545 28.6143 32.9968 22.6158 26.6918C16.6174 20.3869 8.48388 16.8401 0 16.8299Z" fill="#5055B1"/>
<path d="M44.4089 0.0178833H30.3361C37.4552 4.75902 43.4875 11.0974 48 18.5782V3.78915C47.9993 2.7887 47.6207 1.82947 46.9473 1.1223C46.2739 0.415126 45.3609 0.0178831 44.4089 0.0178833Z" fill="#5055B1"/>
<path d="M8.84206 0.0179946H0V8.42602C10.6051 8.43761 20.7727 12.87 28.2718 20.7505C35.7709 28.631 39.9888 39.3159 40.0002 50.4608H47.9997V41.1687C46.1911 30.9561 41.4819 21.5584 34.4922 14.213C27.5026 6.86757 18.5601 1.91872 8.84206 0.0179946Z" fill="#5055B1"/>
</svg>
