<svg width="68" height="68" viewBox="0 0 68 68" fill="none" xmlns="http://www.w3.org/2000/svg">
<path d="M0 22.6636V35.2525C4.30187 35.2496 8.56211 36.0949 12.537 37.7401C16.5118 39.3853 20.1232 41.7981 23.1646 44.8405C26.2052 47.8818 28.6166 51.4926 30.2609 55.4665C31.9051 59.4403 32.75 63.6993 32.7472 67.9998H45.3271C45.3158 55.981 40.5369 44.4575 32.0391 35.958C23.5413 27.4585 12.0188 22.6774 0 22.6636Z" fill="white"/>
<path d="M62.9126 0H42.9761C53.0616 6.39133 61.6072 14.9358 68 25.0204V5.08388C67.9991 3.73522 67.4626 2.44213 66.5087 1.48882C65.5547 0.535506 64.2612 -3.33717e-07 62.9126 0Z" fill="white"/>
<path d="M12.5262 0.000150038H0V11.3347C15.0239 11.3503 29.428 17.3253 40.0517 27.9487C50.6754 38.5721 56.6509 52.976 56.667 68H67.9996V55.4737C65.4373 41.7065 58.766 29.0379 48.864 19.1358C38.962 9.23377 26.2934 2.56244 12.5262 0.000150038Z" fill="white"/>
</svg>
